<?xml version="1.0" standalone="no"?>
<!DOCTYPE svg PUBLIC "-//W3C//DTD SVG 20010904//EN"
 "http://www.w3.org/TR/2001/REC-SVG-20010904/DTD/svg10.dtd">
<svg version="1.0" xmlns="http://www.w3.org/2000/svg"
 width="260.000000pt" height="260.000000pt" viewBox="0 0 260.000000 260.000000"
 preserveAspectRatio="xMidYMid meet">
<metadata>
Created by potrace 1.14, written by Peter Selinger 2001-2017
</metadata>
<g transform="translate(0.000000,260.000000) scale(0.100000,-0.100000)"
fill="#000000" stroke="none">
<path d="M977 2563 c-2 -5 -3 -20 -2 -35 1 -22 -2 -25 -16 -17 -11 6 -20 5
-24 0 -3 -5 -20 -7 -39 -4 -19 3 -36 1 -40 -6 -4 -6 -12 -11 -18 -11 -6 0 -5
7 3 17 12 15 12 16 -1 8 -8 -5 -21 -10 -28 -11 -8 -2 -17 -6 -20 -10 -4 -4 1
-4 11 -1 9 4 17 2 17 -3 0 -6 -5 -10 -11 -10 -5 0 -7 -5 -3 -11 4 -7 -1 -7
-16 1 -15 8 -20 8 -16 1 5 -7 -1 -11 -14 -11 -14 0 -19 -4 -14 -12 6 -10 5
-10 -7 -2 -11 9 -17 9 -26 -1 -6 -7 -10 -15 -7 -17 2 -3 -3 -5 -11 -5 -13 0
-13 2 0 17 13 14 13 17 0 17 -8 0 -12 -4 -9 -8 2 -4 -1 -11 -7 -14 -5 -4 -8
-14 -5 -22 3 -8 1 -11 -4 -8 -6 3 -10 0 -10 -7 0 -10 -2 -10 -9 1 -11 16 -34
5 -24 -12 5 -8 2 -8 -9 1 -12 10 -18 9 -28 -3 -7 -8 -16 -13 -20 -10 -5 3 -6
-3 -3 -14 3 -11 -2 -21 -12 -25 -9 -3 -14 -2 -11 2 2 4 -5 8 -17 9 -12 0 -16
-1 -9 -4 6 -3 12 -9 12 -14 0 -6 -4 -7 -10 -4 -5 3 -10 0 -10 -7 -1 -17 -47
-51 -59 -43 -5 3 -13 0 -17 -6 -5 -8 -3 -9 6 -4 9 6 11 4 6 -4 -5 -7 -14 -10
-22 -7 -8 3 -13 2 -13 -2 1 -4 1 -16 0 -27 -1 -17 -3 -18 -11 -5 -8 13 -10 12
-10 -2 0 -10 -4 -18 -10 -18 -5 0 -10 -8 -10 -17 0 -15 -2 -16 -10 -3 -8 12
-10 10 -10 -8 0 -15 -4 -21 -12 -16 -8 5 -9 2 -5 -10 6 -14 4 -15 -16 -5 -19
11 -20 10 -10 -3 11 -12 9 -18 -9 -34 -12 -10 -18 -13 -14 -6 4 7 2 12 -5 12
-6 0 -9 -8 -6 -20 3 -11 -2 -25 -11 -32 -13 -11 -15 -11 -8 2 4 8 0 6 -8 -5
-9 -11 -14 -25 -11 -33 2 -7 0 -10 -5 -7 -6 3 -10 -1 -10 -9 0 -8 -9 -16 -20
-18 -12 -2 -21 -7 -21 -13 0 -5 -5 -16 -11 -23 -8 -9 -7 -11 7 -6 13 5 16 4
11 -4 -4 -7 -14 -12 -22 -12 -10 0 -13 -8 -10 -26 4 -22 3 -24 -10 -13 -8 7
-14 8 -13 3 5 -26 -2 -46 -15 -41 -10 4 -12 0 -9 -14 3 -10 10 -16 16 -12 6 3
7 1 3 -5 -4 -7 -15 -12 -24 -12 -10 0 -13 -3 -7 -8 6 -4 11 -13 13 -21 3 -12
0 -12 -13 -1 -13 11 -14 10 -9 -5 6 -14 4 -16 -7 -10 -11 6 -12 5 -2 -5 13
-14 1 -47 -21 -62 -8 -5 -7 -8 2 -8 6 0 12 -5 12 -11 0 -5 -4 -7 -10 -4 -5 3
-10 0 -10 -9 0 -8 6 -17 13 -19 10 -4 10 -6 0 -6 -7 -1 -13 -8 -13 -17 0 -9 5
-12 13 -8 8 6 8 3 -1 -9 -8 -9 -11 -20 -8 -25 9 -15 -28 -10 -39 5 -8 10 -12
-60 -14 -232 -2 -193 0 -250 11 -263 7 -9 8 -13 2 -9 -6 4 -10 -6 -10 -28 1
-27 3 -31 14 -22 10 7 10 13 3 15 -6 2 -11 8 -11 14 0 7 4 7 13 -1 10 -8 17
-7 27 2 12 10 12 9 2 -4 -6 -9 -8 -20 -4 -24 4 -5 1 -5 -5 -1 -7 4 -13 3 -13
-3 0 -5 -3 -18 -6 -28 -5 -15 -4 -15 5 -3 9 13 11 13 12 0 0 -10 3 -8 9 5 7
16 9 17 9 3 1 -9 -7 -24 -16 -34 -16 -16 -16 -16 3 -10 14 4 21 2 21 -8 0 -9
-4 -13 -9 -10 -4 3 -8 0 -8 -5 0 -6 5 -11 11 -11 5 0 8 -4 4 -9 -3 -5 -1 -12
5 -16 6 -4 7 -13 1 -23 -4 -9 -6 -23 -3 -31 3 -9 0 -11 -8 -6 -8 5 -11 4 -7
-3 4 -5 15 -9 25 -7 9 1 22 -2 29 -7 15 -12 5 -40 -11 -32 -6 3 -1 -3 11 -14
17 -15 19 -22 10 -32 -9 -10 -9 -11 2 -5 11 6 13 4 8 -8 -4 -11 -2 -14 7 -11
7 3 19 -3 27 -12 9 -12 10 -15 1 -10 -6 4 -12 2 -12 -3 0 -6 7 -11 15 -11 13
0 14 -4 5 -20 -9 -17 -8 -19 7 -13 15 5 16 3 5 -8 -16 -18 -15 -26 4 -33 13
-5 14 -4 6 7 -9 10 -9 14 1 14 7 0 14 -10 15 -21 0 -11 6 -22 12 -24 5 -2 10
-10 10 -19 0 -18 25 -45 34 -36 3 4 6 -1 6 -11 0 -9 -4 -14 -10 -11 -6 3 -7
-1 -3 -10 3 -9 9 -13 12 -8 8 11 27 11 38 -1 5 -5 3 -6 -4 -2 -8 4 -13 1 -13
-9 0 -10 5 -13 12 -9 8 5 9 2 4 -11 -5 -15 -4 -16 9 -5 15 12 21 4 16 -24 -1
-5 6 -6 15 -2 13 5 15 4 5 -7 -9 -12 -6 -14 14 -12 21 3 23 1 15 -15 -13 -24
-13 -30 1 -30 5 0 7 4 4 10 -3 5 1 10 9 10 10 0 13 -7 11 -21 -4 -17 -2 -19
10 -9 8 7 15 9 15 4 0 -5 5 -2 11 6 9 13 10 13 6 0 -2 -8 -9 -14 -15 -13 -6 2
-9 -3 -6 -10 2 -7 16 -13 29 -13 13 0 22 2 20 4 -2 3 0 13 5 22 7 13 5 21 -4
29 -14 12 -16 35 -4 47 11 10 -3 34 -16 27 -8 -5 -8 -3 1 8 6 8 10 33 8 57 -2
23 1 42 6 42 6 0 8 -4 5 -8 -3 -5 1 -9 9 -9 10 0 12 4 5 12 -5 7 -6 16 -2 20
4 5 1 5 -5 1 -17 -9 -17 6 -1 23 11 11 8 12 -12 6 -14 -3 -20 -3 -14 2 5 4 10
23 9 41 -1 24 3 31 14 27 11 -4 11 -2 3 8 -7 8 -9 17 -5 21 4 4 -1 4 -11 0
-15 -6 -17 -4 -10 7 15 24 13 37 -12 60 -13 12 -21 26 -17 32 3 6 1 7 -4 4 -6
-4 -13 0 -17 8 -3 8 0 15 6 15 6 0 8 3 5 6 -4 4 -14 1 -22 -6 -14 -11 -14 -10
-6 13 8 21 7 25 -4 20 -18 -6 -20 8 -3 25 16 16 -4 16 -21 0 -11 -11 -13 -10
-8 4 7 21 -2 50 -13 43 -5 -3 -7 3 -5 12 1 10 -5 27 -14 38 -15 18 -15 19 2 6
18 -14 23 -5 9 17 -5 7 -17 10 -28 7 -13 -4 -12 -2 4 6 29 16 29 32 0 23 -20
-6 -21 -5 -10 9 11 13 10 17 -5 27 -16 10 -16 11 -1 6 10 -3 20 -1 23 5 4 5 3
8 -2 7 -10 -4 -12 0 -22 44 -6 25 -5 36 1 32 7 -5 7 -1 0 12 -6 11 -7 27 -1
41 5 13 4 25 -1 28 -7 4 -7 13 0 25 7 13 6 21 -4 29 -14 12 -10 55 4 46 9 -6
7 36 -3 53 -5 7 -3 12 7 12 9 0 16 5 16 11 0 5 -4 8 -9 5 -13 -8 -19 15 -11
39 4 11 6 28 4 38 -1 9 2 15 7 11 5 -3 6 -10 3 -16 -5 -7 -2 -8 5 -4 7 5 10
10 7 14 -3 3 2 11 11 17 15 11 13 12 -11 10 -27 -3 -27 -3 -10 16 18 20 29 26
19 9 -7 -11 8 -14 19 -3 3 4 -4 13 -16 21 l-23 13 23 -4 c22 -5 30 7 12 18 -6
4 -7 11 -4 17 4 6 9 5 15 -3 6 -10 8 -7 6 8 0 12 -4 20 -8 17 -4 -2 -11 0 -14
6 -4 6 -3 9 2 8 4 -2 19 5 33 15 13 9 20 17 14 17 -5 0 -15 -5 -21 -11 -8 -8
-13 -7 -18 2 -5 8 -4 10 3 5 11 -6 17 6 13 27 -1 4 8 3 20 -3 11 -7 23 -9 27
-6 3 3 0 6 -8 6 -9 0 -10 3 -1 13 8 10 7 17 -2 27 -9 10 -9 11 1 5 9 -5 12 -1
10 11 -2 12 6 23 20 29 15 7 21 16 18 28 -4 15 -2 16 10 6 12 -10 13 -9 8 5
-4 11 -1 16 11 16 9 0 13 5 10 10 -4 6 -12 7 -18 3 -7 -4 -6 1 2 11 8 9 23 15
33 13 15 -4 16 -2 7 15 -10 18 -9 20 6 14 13 -5 16 -2 11 9 -4 11 0 15 12 13
10 -2 16 3 14 11 -4 19 17 41 39 41 10 0 21 4 24 10 3 6 -1 7 -10 4 -11 -5
-14 -2 -9 10 3 9 10 13 15 10 5 -3 9 0 9 5 0 15 27 14 34 -1 3 -7 3 -2 0 11
-4 15 -2 21 4 17 11 -7 35 27 27 36 -3 3 2 5 10 5 8 0 12 -4 9 -9 -3 -4 0 -8
5 -8 6 0 11 5 11 12 0 6 3 8 7 5 4 -4 13 7 20 24 7 18 16 29 20 26 3 -4 0 -14
-8 -24 -11 -14 -9 -13 12 2 15 11 25 23 23 26 -5 8 29 4 46 -6 11 -6 10 -3 -2
11 -16 19 -16 20 2 20 10 0 16 -4 13 -9 -3 -5 4 -4 16 2 11 7 21 14 21 17 0 3
-4 3 -9 -1 -5 -3 -13 0 -17 6 -4 8 -3 9 4 5 7 -4 12 -1 12 6 0 10 2 10 9 -1
11 -17 55 -5 44 12 -4 7 1 6 10 -2 15 -12 17 -12 11 4 -6 14 -4 16 7 9 21 -13
49 -15 49 -4 0 6 -3 9 -7 9 -21 -3 -33 2 -27 12 4 8 9 7 15 -2 5 -8 9 -10 9
-6 0 4 9 3 19 -3 14 -7 22 -7 26 0 4 6 10 8 15 5 5 -3 11 -1 15 5 4 6 11 7 17
4 6 -4 8 -2 4 4 -3 6 -2 13 4 17 5 3 10 1 10 -6 0 -9 3 -9 14 0 10 9 16 9 21
1 5 -7 11 -8 19 -1 13 11 34 10 55 -3 10 -7 13 -5 9 5 -4 11 6 14 47 14 30 0
53 -4 52 -9 -1 -4 6 -10 16 -11 9 -2 15 1 11 6 -8 13 10 11 25 -3 11 -11 12
-10 6 2 -6 12 -5 13 6 3 15 -15 33 -17 25 -5 -6 10 40 9 50 -1 4 -3 -3 -4 -15
-2 -12 2 -19 0 -16 -6 4 -5 11 -7 16 -4 5 4 9 0 9 -7 1 -7 7 -2 15 12 8 14 14
19 15 12 0 -7 5 -10 12 -6 7 4 8 3 4 -5 -4 -6 -12 -8 -18 -5 -7 4 -8 2 -4 -4
5 -9 13 -9 27 -2 16 9 19 7 20 -12 0 -13 3 -17 6 -10 5 13 33 17 33 4 0 -4 9
-13 21 -20 12 -8 18 -9 14 -3 -10 18 7 12 22 -6 8 -10 12 -13 9 -6 -4 6 -2 15
4 18 6 4 10 3 9 -2 -4 -21 2 -34 13 -27 6 4 8 3 4 -4 -3 -6 -15 -9 -26 -7 -12
2 -18 0 -15 -6 4 -5 11 -7 16 -4 5 4 9 -2 9 -12 0 -15 2 -16 11 -3 9 13 10 13
6 0 -2 -8 -11 -14 -21 -12 -9 2 -16 -2 -16 -8 0 -9 14 -14 33 -11 4 1 2 -7 -5
-18 -6 -11 -19 -17 -27 -14 -14 4 -14 3 -1 -5 10 -8 18 -8 27 0 19 15 16 2 -4
-18 -20 -19 -26 -44 -11 -44 6 0 8 6 5 13 -3 8 1 14 8 14 10 0 11 -5 4 -18
-14 -26 -12 -62 4 -53 9 5 9 4 0 -6 -9 -10 -10 -17 -2 -27 8 -9 8 -17 0 -27
-9 -11 -9 -15 1 -19 9 -4 9 -6 1 -6 -16 -1 -26 16 -13 24 15 9 12 25 -3 19
-14 -5 -18 -54 -4 -54 4 0 5 -6 0 -12 -4 -7 -8 -20 -8 -28 0 -8 -3 -20 -7 -26
-4 -6 -1 -11 7 -11 8 0 11 5 8 10 -3 6 -1 7 6 3 6 -4 8 -12 5 -18 -4 -6 0 -15
7 -20 10 -7 7 -7 -8 -3 -13 3 -23 2 -23 -3 0 -5 10 -12 22 -15 18 -5 19 -8 8
-21 -7 -9 -8 -16 -3 -16 12 0 14 -38 2 -45 -5 -3 -6 1 -3 10 4 10 2 14 -8 10
-22 -9 -17 -35 6 -36 21 0 21 -1 1 -8 -11 -5 -23 -7 -26 -5 -3 2 -6 -3 -6 -11
0 -18 13 -20 20 -2 3 7 6 4 6 -6 1 -12 5 -16 14 -11 9 6 9 5 0 -8 -7 -8 -10
-18 -6 -22 11 -10 12 -37 2 -30 -5 3 -9 -2 -9 -11 0 -10 5 -13 13 -9 9 6 9 5
0 -7 -7 -9 -11 -25 -8 -38 2 -12 0 -19 -6 -16 -5 4 -9 -1 -9 -10 0 -10 5 -13
12 -9 6 4 8 3 4 -4 -3 -6 -2 -14 4 -17 6 -4 0 -15 -15 -27 -14 -11 -24 -23
-20 -26 3 -3 11 3 19 13 10 14 15 15 21 5 5 -9 4 -11 -3 -6 -7 4 -12 1 -12 -9
0 -10 5 -13 13 -9 9 6 9 5 0 -7 -13 -16 -12 -36 1 -58 5 -8 5 -12 0 -9 -5 3
-18 -4 -28 -15 -15 -16 -16 -19 -4 -14 18 7 33 -19 17 -29 -6 -3 -8 -12 -5
-19 3 -9 -2 -11 -17 -8 -21 5 -21 5 -3 -9 15 -12 16 -17 6 -23 -9 -6 -11 -4
-5 5 5 8 4 11 -2 7 -6 -4 -11 -21 -11 -39 0 -54 -2 -59 -13 -52 -8 4 -7 9 2
16 11 8 11 9 -1 5 -8 -2 -14 -12 -12 -22 2 -9 -1 -15 -5 -12 -5 3 -15 2 -22
-2 -10 -6 -9 -10 4 -14 10 -5 14 -3 9 5 -4 7 -3 8 5 4 6 -4 9 -12 5 -17 -3 -6
-8 -8 -11 -5 -8 8 -31 -18 -25 -29 3 -5 -2 -4 -11 4 -10 8 -20 11 -24 7 -3 -3
-2 -6 4 -6 6 0 13 -7 16 -14 4 -10 1 -13 -9 -9 -8 3 -14 2 -13 -3 3 -21 -2
-26 -15 -15 -10 8 -16 9 -21 1 -3 -6 -11 -8 -16 -5 -5 3 -6 -1 -3 -10 7 -16
-15 -18 -27 -2 -3 5 -9 1 -12 -8 -5 -10 -3 -14 4 -9 7 4 10 1 7 -6 -5 -16 -38
-23 -38 -9 0 6 -5 7 -10 4 -6 -4 -7 -12 -4 -18 5 -9 3 -9 -6 0 -11 10 -16 9
-27 -5 -8 -9 -12 -11 -8 -5 3 7 1 13 -5 13 -6 0 -8 5 -4 13 6 8 3 8 -9 -1 -9
-8 -22 -10 -28 -6 -7 4 -9 3 -6 -3 4 -6 0 -14 -9 -17 -24 -9 -27 -7 -14 9 11
13 10 14 -4 9 -9 -3 -16 -11 -16 -18 0 -6 -4 -5 -9 4 -6 8 -7 18 -4 24 3 5 1
6 -5 2 -7 -4 -12 -14 -12 -23 0 -11 -5 -9 -18 8 -15 17 -21 19 -27 9 -5 -8 -4
-11 2 -7 5 3 10 -1 10 -10 0 -10 -14 -1 -39 25 -38 41 -54 47 -20 8 17 -20 16
-20 -3 -6 -25 18 -35 32 -30 40 2 3 -7 6 -20 6 -13 0 -21 -4 -19 -8 3 -5 11
-5 17 -2 7 4 8 3 4 -2 -5 -5 -14 -9 -20 -9 -15 0 -16 -27 -2 -37 5 -4 1 -8
-10 -8 -16 0 -17 -2 -6 -9 17 -11 23 -39 10 -47 -5 -3 -6 -11 -2 -17 11 -18
10 -67 -2 -67 -5 0 -3 -5 5 -10 12 -8 12 -10 1 -10 -11 0 -11 -3 0 -17 10 -11
10 -14 2 -9 -7 4 -13 2 -13 -3 0 -6 6 -11 13 -11 8 0 7 -4 -3 -10 -8 -5 -10
-10 -4 -10 6 0 11 -7 12 -15 1 -8 3 -22 4 -30 1 -16 9 -18 46 -15 13 1 30 -4
39 -12 20 -16 16 -16 38 2 11 9 16 10 11 3 -9 -17 6 -17 23 -1 10 11 17 8 33
-12 13 -15 19 -18 15 -8 -3 10 -2 20 3 23 6 4 10 1 10 -6 0 -8 5 -7 17 2 11
10 14 10 9 2 -9 -16 6 -17 21 -2 14 14 36 2 27 -14 -4 -7 5 -1 21 13 16 14 25
20 22 14 -4 -7 0 -17 8 -24 13 -11 14 -10 10 2 -4 10 4 14 32 16 23 1 44 10
54 21 14 17 16 17 27 2 9 -14 10 -13 7 6 -3 16 0 20 11 16 7 -3 11 -9 8 -14
-3 -5 2 -6 10 -3 9 3 12 12 8 22 -5 15 -3 15 10 4 11 -9 18 -10 23 -2 3 6 12
7 18 3 7 -4 6 1 -2 10 -12 15 -12 17 0 12 8 -3 23 2 34 11 11 8 14 12 6 8 -10
-5 -12 -3 -7 5 5 7 15 10 23 6 14 -5 14 -3 2 11 -13 16 -12 16 9 5 20 -11 26
-8 23 12 -1 6 14 11 31 8 4 0 5 6 1 14 -4 13 -8 13 -22 3 -14 -12 -14 -11 -2
4 7 10 17 15 22 12 5 -3 9 0 9 5 0 6 5 11 11 11 5 0 7 -6 4 -13 -4 -6 1 -3 9
8 9 11 14 26 11 33 -3 8 3 16 15 19 11 3 20 12 20 19 0 15 15 19 23 7 2 -5 2
-3 1 4 -2 6 2 14 9 17 7 3 1 3 -13 0 l-25 -5 23 13 c18 11 20 16 10 26 -11 11
-9 12 6 6 15 -6 17 -3 12 12 -7 22 7 49 21 41 5 -3 10 -1 11 6 1 7 3 24 5 39
1 15 7 31 11 35 5 5 6 2 1 -6 -5 -10 -4 -12 4 -7 6 4 8 13 4 19 -11 18 -12 37
-2 37 5 0 4 10 -2 22 -11 20 -11 22 3 10 13 -10 18 -10 24 -1 4 8 3 9 -4 5 -7
-4 -12 -4 -13 1 0 4 -2 16 -4 26 -2 9 1 17 7 17 6 0 8 -7 5 -14 -4 -10 -1 -13
9 -9 20 7 17 18 -8 30 -19 8 -20 10 -4 16 10 4 15 3 11 -3 -9 -15 1 -12 15 5
10 12 8 14 -9 10 -11 -2 -24 1 -27 7 -5 7 -2 8 6 3 10 -6 12 -4 6 10 -6 16 -4
16 10 4 16 -13 16 -12 6 8 -14 26 -15 36 -4 29 5 -3 9 2 9 10 0 8 -6 13 -13
10 -9 -3 -11 1 -7 11 5 12 3 14 -8 8 -12 -7 -12 -6 -1 7 9 11 9 18 2 21 -6 3
-5 4 2 3 7 -2 13 -8 13 -14 0 -7 3 -12 8 -12 4 0 10 0 13 0 4 0 1 7 -6 15 -7
8 -9 15 -4 15 5 1 -2 8 -16 16 -25 15 -25 15 -2 10 13 -2 21 -2 18 1 -3 3 -1
14 4 24 7 11 7 20 0 24 -5 3 -7 12 -3 20 3 8 0 15 -7 15 -6 0 -8 -5 -4 -12 5
-9 2 -9 -9 1 -18 15 -23 26 -7 16 14 -9 12 8 -2 25 -7 8 -3 6 9 -3 15 -13 23
-15 28 -7 4 6 4 14 1 17 -3 4 -6 0 -6 -8 0 -11 -2 -11 -10 1 -12 19 -13 33 -2
26 5 -3 9 1 9 9 0 17 -8 19 -25 5 -9 -7 -9 -7 -2 2 12 14 13 31 2 24 -4 -2 -8
4 -8 14 0 10 4 16 8 14 4 -3 8 2 8 11 0 9 5 13 10 10 8 -5 7 -11 -1 -21 -8
-10 -9 -18 -2 -25 8 -8 13 -7 18 2 5 8 4 10 -3 5 -15 -9 -16 6 -2 20 7 7 2 19
-16 39 -14 15 -19 25 -11 22 25 -10 29 6 5 21 -23 13 -23 13 4 8 15 -4 29 -2
32 3 3 5 0 8 -7 7 -6 0 -12 3 -12 9 0 5 5 9 10 7 6 -2 5 2 -2 9 -10 10 -16 9
-30 -2 -16 -13 -17 -12 -5 3 10 13 10 17 0 22 -7 3 -3 4 10 2 15 -3 22 0 19 7
-2 7 -9 12 -14 12 -6 0 -15 4 -20 9 -4 5 -4 7 2 4 6 -3 21 11 34 31 17 27 19
32 5 19 -17 -15 -20 -15 -34 0 -13 14 -12 15 2 10 26 -10 31 5 6 20 l-23 13
23 -5 c15 -3 22 0 19 7 -2 7 -9 12 -14 12 -6 0 -15 4 -20 8 -4 5 -2 7 6 5 7
-2 16 3 18 10 3 7 1 11 -4 10 -4 -2 -9 2 -10 7 -2 6 1 10 6 10 5 0 13 3 17 8
7 6 -10 11 -29 8 -5 -1 -6 3 -2 9 3 5 16 8 28 6 12 -1 16 -1 9 1 -7 3 -9 9 -6
15 4 6 -2 8 -17 3 -19 -5 -21 -4 -9 4 13 10 13 12 0 22 -13 9 -12 10 3 5 15
-5 17 -2 12 15 -4 13 -3 19 2 16 5 -4 10 1 10 9 0 8 -6 13 -13 10 -8 -3 -16 0
-20 6 -4 7 -3 8 4 4 7 -4 12 -3 12 3 0 5 -5 13 -11 17 -8 4 -7 9 2 15 12 8 11
11 -1 19 -9 6 -10 10 -3 10 6 0 15 -5 18 -10 8 -13 25 -3 25 13 0 8 -3 8 -9
-1 -7 -11 -10 -10 -15 3 -8 22 -8 27 2 21 5 -3 9 2 9 10 0 8 -6 13 -13 10 -8
-3 -16 0 -20 6 -4 7 -3 8 4 4 7 -4 12 -3 12 3 0 5 -5 13 -10 16 -6 4 -8 11 -4
16 3 5 10 7 15 3 5 -3 7 -9 4 -14 -3 -5 -1 -11 4 -14 5 -4 12 -2 15 3 4 5 2
12 -4 16 -6 4 -8 11 -5 16 6 8 -9 13 -28 10 -5 -1 -5 3 -2 9 4 6 14 9 22 6 9
-4 13 -1 11 6 -3 7 -10 13 -15 13 -6 0 -15 4 -20 9 -5 6 -2 6 6 1 11 -6 13 -4
7 10 -6 18 -6 18 15 -1 l22 -19 -14 23 c-8 12 -22 22 -32 22 -13 0 -17 5 -14
15 5 11 1 12 -18 5 -16 -6 -27 -6 -31 2 -4 6 -3 8 2 5 6 -3 16 -2 24 4 12 7
10 9 -7 9 -13 0 -23 4 -23 8 0 5 -7 9 -15 9 -8 0 -15 -5 -15 -10 0 -6 -3 -7
-6 -4 -4 4 -1 13 5 21 10 12 9 15 -8 13 -11 0 -17 -5 -15 -9 3 -4 0 -8 -5 -8
-6 0 -11 5 -11 11 0 5 -13 15 -30 20 -16 6 -28 15 -25 19 3 4 -11 6 -31 3 -25
-3 -34 -1 -30 6 4 6 2 11 -3 11 -6 0 -11 -4 -11 -10 0 -15 -28 0 -33 18 -4 15
-5 15 -6 0 0 -10 -6 -18 -12 -18 -5 0 -8 4 -4 9 3 6 -4 8 -15 6 -11 -2 -18 0
-15 5 3 4 -13 7 -35 5 -22 -2 -40 1 -40 7 0 5 10 6 22 2 19 -6 21 -4 11 7 -13
16 -68 25 -58 10 3 -5 1 -13 -5 -16 -6 -4 -9 -1 -8 7 2 10 -35 14 -185 16
-152 2 -187 0 -181 -10 5 -8 1 -8 -11 2 -11 9 -16 10 -11 3 4 -7 2 -13 -3 -13
-6 0 -11 4 -11 10 0 14 -43 6 -48 -9 -3 -10 0 -10 18 -1 12 7 20 7 16 2 -3 -6
-1 -13 4 -15 6 -3 5 -4 -2 -3 -7 2 -21 -1 -32 -6 -12 -7 -16 -7 -12 0 3 6 2
13 -4 17 -6 4 -8 11 -5 16 4 5 4 9 1 9 -3 0 -6 -3 -9 -7z m738 -72 c3 -5 2
-12 -3 -15 -5 -3 -9 1 -9 9 0 17 3 19 12 6z m-1119 -126 c-9 -9 -16 -13 -16
-8 0 12 22 34 28 28 2 -2 -3 -11 -12 -20z m482 -86 c-2 -6 -8 -11 -13 -11 -6
0 -17 -5 -25 -11 -13 -10 -13 -10 -1 5 7 10 17 15 22 12 5 -3 9 0 9 5 0 6 3
11 6 11 3 0 4 -5 2 -11z m591 -443 c0 -7 -2 -6 -6 2 -2 6 -8 10 -12 8 -4 -3
-8 1 -8 9 0 11 4 12 14 4 7 -6 13 -17 12 -23z m279 -352 c1 -1 -4 -7 -12 -13
-11 -9 -16 -9 -22 0 -4 8 -3 9 4 5 16 -10 15 6 0 24 -11 12 -10 12 7 0 11 -8
21 -15 23 -16z m-1921 -19 c0 -8 -4 -12 -9 -9 -5 3 -6 10 -3 15 9 13 12 11 12
-6z m263 -161 c0 -8 -19 -13 -24 -6 -3 5 1 9 9 9 8 0 15 -2 15 -3z m-265 -184
c3 -5 1 -10 -4 -10 -6 0 -11 5 -11 10 0 6 2 10 4 10 3 0 8 -4 11 -10z m18 -35
c-3 -9 -8 -14 -10 -11 -3 3 -2 9 2 15 9 16 15 13 8 -4z m52 -233 c-3 -3 -11 0
-18 7 -9 10 -8 11 6 5 10 -3 15 -9 12 -12z m351 -84 c10 -13 12 -18 5 -11 -7
6 -19 10 -25 9 -6 -2 -8 -1 -3 1 4 3 5 9 1 14 -10 17 3 9 22 -13z m644 -82 c0
-3 -4 -8 -10 -11 -5 -3 -10 -1 -10 4 0 6 5 11 10 11 6 0 10 -2 10 -4z m-620
-326 c-6 -11 -13 -20 -16 -20 -2 0 0 9 6 20 6 11 13 20 16 20 2 0 0 -9 -6 -20z"/>
<path d="M1530 2560 c0 -5 5 -12 10 -15 6 -3 10 -1 10 5 0 7 7 7 23 -1 16 -8
19 -8 11 0 -13 15 -54 23 -54 11z"/>
<path d="M925 2530 c6 -10 4 -12 -11 -6 -15 6 -17 5 -6 -5 9 -9 15 -10 23 -2
8 8 7 13 -2 18 -8 6 -10 4 -4 -5z"/>
<path d="M950 2529 c0 -5 5 -7 10 -4 6 3 10 8 10 11 0 2 -4 4 -10 4 -5 0 -10
-5 -10 -11z"/>
<path d="M482 2314 c-7 -8 -8 -14 -3 -14 10 0 25 19 20 25 -2 1 -10 -3 -17
-11z"/>
<path d="M2074 2258 c-3 -4 -2 -8 2 -8 4 0 0 -8 -9 -18 -14 -15 -15 -19 -2
-19 8 0 11 5 8 10 -3 6 -1 7 6 3 8 -5 7 -13 -4 -28 -11 -16 -12 -25 -3 -35 8
-9 7 -13 -1 -13 -7 0 -9 -5 -6 -10 4 -6 12 -7 18 -3 7 3 4 -3 -6 -14 -12 -14
-15 -23 -7 -28 5 -3 8 -11 5 -16 -4 -5 -1 -9 5 -9 6 0 8 -5 5 -10 -5 -8 -12
-7 -23 2 -15 11 -15 11 -5 -3 7 -9 14 -28 15 -43 1 -14 6 -26 11 -26 4 0 5 -5
2 -10 -5 -8 -12 -7 -23 2 -15 12 -16 11 -4 -4 7 -9 14 -37 15 -62 0 -25 5 -46
9 -46 4 0 8 -7 8 -16 0 -9 -5 -12 -12 -8 -7 4 -8 3 -4 -5 6 -9 11 -9 22 0 12
10 15 10 12 -2 -2 -8 3 -13 11 -11 12 3 12 1 1 -13 -11 -14 -10 -17 9 -22 17
-4 19 -8 10 -19 -9 -11 -9 -13 3 -9 10 4 14 -2 14 -21 -1 -15 5 -29 12 -31 6
-3 12 0 12 7 0 6 -5 8 -12 4 -7 -5 -8 -3 -3 5 11 19 28 -2 27 -36 0 -15 5 -31
12 -35 8 -6 7 -8 -1 -8 -7 0 -13 -4 -13 -10 0 -5 6 -10 14 -10 8 0 17 -7 20
-16 5 -14 4 -15 -8 -5 -12 10 -13 9 -9 -8 3 -13 1 -21 -8 -21 -7 0 -9 -3 -6
-6 4 -4 12 -2 19 4 9 7 17 5 28 -6 13 -14 12 -15 -3 -9 -11 4 -16 3 -12 -3 3
-6 1 -10 -5 -10 -6 0 -8 -4 -5 -10 3 -5 14 -10 23 -10 15 0 15 2 2 10 -8 5
-10 10 -4 10 18 0 24 -12 14 -26 -14 -16 -22 -56 -9 -49 5 4 7 10 4 15 -3 5
-1 11 4 14 12 8 8 -37 -4 -46 -6 -5 -5 -8 3 -8 6 0 12 -5 12 -11 0 -5 -4 -7
-10 -4 -6 3 -7 -1 -4 -9 3 -9 10 -16 16 -16 5 0 6 -5 3 -10 -4 -6 -12 -7 -18
-4 -9 5 -9 4 0 -6 6 -7 9 -19 6 -26 -3 -8 0 -14 6 -14 6 0 11 -5 11 -11 0 -5
-4 -7 -10 -4 -5 3 -10 -1 -10 -10 0 -10 5 -14 13 -10 6 4 3 -1 -7 -9 -20 -16
-20 -16 0 -16 16 0 17 -2 4 -10 -10 -6 -11 -10 -2 -10 6 0 12 -5 12 -11 0 -5
-4 -7 -10 -4 -5 3 -10 2 -10 -4 0 -5 4 -12 9 -15 11 -7 9 -32 -4 -43 -4 -4 -5
-2 0 6 5 9 4 12 -2 8 -8 -5 -10 -52 -3 -52 1 0 3 -10 4 -22 2 -13 -3 -23 -10
-23 -7 0 -11 -8 -9 -17 1 -10 -2 -26 -7 -35 -6 -13 -5 -17 4 -14 7 1 9 1 5 -2
-4 -2 -2 -11 5 -20 10 -14 10 -15 -2 -4 -18 16 -27 15 -33 -2 -4 -10 -1 -13 9
-9 7 3 14 0 14 -6 0 -6 -10 -11 -22 -12 -13 0 -17 -3 -10 -6 10 -4 10 -8 1
-19 -6 -7 -9 -21 -5 -29 3 -9 2 -14 -3 -11 -5 3 -12 -1 -15 -10 -3 -8 -2 -12
4 -9 20 12 9 -15 -16 -42 -15 -15 -22 -21 -16 -13 8 11 8 20 0 30 -8 13 -9 12
-5 -1 3 -9 0 -22 -6 -28 -9 -9 -8 -14 3 -21 14 -9 7 -14 -13 -11 -4 1 -3 -7 2
-18 12 -21 -10 -48 -29 -36 -5 3 -10 1 -10 -4 0 -6 5 -11 10 -11 6 0 10 -4 10
-10 0 -5 -7 -7 -16 -3 -11 4 -22 -1 -30 -12 -16 -22 -18 -39 -4 -30 6 3 7 -1
4 -10 -6 -14 -8 -14 -20 2 -8 10 -14 14 -13 8 3 -23 -2 -36 -11 -30 -5 3 -10
1 -10 -5 0 -6 -4 -9 -9 -6 -5 4 -7 -4 -3 -16 4 -16 2 -19 -8 -13 -10 6 -12 4
-7 -8 7 -19 -17 -42 -34 -31 -8 5 -10 2 -6 -8 8 -22 -3 -30 -21 -15 -13 10
-15 9 -9 -7 5 -14 3 -17 -8 -13 -8 4 -21 -3 -29 -15 -9 -13 -19 -17 -28 -12
-11 6 -11 5 0 -9 12 -14 11 -16 -7 -12 -14 3 -19 0 -15 -7 5 -8 1 -9 -12 -4
-15 6 -17 5 -6 -5 6 -7 12 -18 12 -23 0 -6 -4 -5 -8 2 -9 14 -42 6 -42 -10 0
-6 8 -4 18 3 15 13 16 12 4 -3 -13 -16 -28 -18 -48 -5 -15 9 -26 -4 -14 -18 7
-8 1 -11 -20 -9 -27 2 -29 0 -19 -18 7 -13 7 -18 1 -14 -6 3 -12 3 -15 -1 -2
-5 -2 -3 -1 4 2 6 -3 14 -10 16 -8 3 -13 -1 -12 -11 0 -9 -5 -17 -11 -18 -7
-1 -14 -2 -15 -4 -2 -1 -11 -3 -20 -5 -11 -2 -15 2 -12 13 3 10 -1 7 -7 -5
-16 -30 -35 -35 -56 -15 -16 16 -16 16 -10 -1 5 -14 2 -20 -13 -24 -11 -3 -20
-10 -20 -15 0 -6 -6 -6 -14 1 -10 9 -16 9 -21 1 -5 -8 -11 -7 -22 2 -17 13
-20 13 -40 -4 -9 -8 -13 -7 -13 3 0 11 -2 11 -10 -1 -9 -13 -11 -13 -20 0 -7
11 -10 11 -10 2 0 -10 -5 -10 -22 -1 -20 10 -21 10 -11 -2 9 -12 5 -14 -24
-13 -19 1 -39 7 -44 15 -7 11 -9 11 -9 -3 0 -10 -4 -18 -10 -18 -5 0 -6 7 -3
17 5 12 3 14 -8 7 -21 -13 -39 -14 -39 -1 0 7 -5 5 -10 -3 -6 -10 -10 -11 -10
-2 0 6 -5 12 -11 12 -5 0 -7 -6 -3 -13 5 -7 0 -6 -11 3 -11 9 -16 10 -11 3 4
-7 2 -13 -4 -13 -6 0 -13 7 -16 15 -8 20 -24 19 -24 -1 0 -8 -5 -12 -10 -9 -6
4 -7 11 -4 17 12 19 -20 28 -39 11 -17 -16 -17 -16 -12 3 6 18 6 18 -10 -1
-17 -20 -17 -20 -11 1 5 15 1 24 -10 28 -9 4 -19 4 -22 1 -3 -3 0 -5 6 -5 7 0
12 -5 12 -10 0 -6 -8 -5 -19 2 -11 7 -17 16 -15 20 3 4 -4 8 -16 8 -15 0 -19
4 -13 13 4 6 8 19 8 27 0 8 4 21 9 29 7 10 6 12 -4 6 -10 -6 -12 -4 -7 9 5 13
3 17 -7 13 -10 -4 -13 -1 -10 8 3 8 13 11 22 8 9 -3 4 4 -13 16 -16 11 -25 21
-20 21 6 0 16 -5 22 -11 8 -8 13 -7 18 2 5 8 4 10 -3 5 -16 -10 -15 26 1 43 9
11 9 13 0 7 -7 -4 -13 -3 -13 1 0 5 6 15 13 22 8 10 8 12 0 7 -15 -8 -14 36 2
46 6 5 5 8 -3 8 -7 0 -10 5 -7 10 3 6 1 10 -5 10 -7 0 -10 -7 -6 -15 3 -8 1
-15 -4 -15 -11 0 -13 11 -4 34 3 9 11 13 17 9 6 -4 7 -1 2 7 -4 7 -2 15 5 20
8 5 7 9 -5 13 -9 4 -13 3 -10 -2 3 -5 1 -12 -4 -15 -5 -4 -8 2 -7 11 2 10 8
18 14 18 12 0 13 10 4 34 -3 7 1 16 7 21 9 5 8 9 -4 13 -9 4 -13 3 -10 -2 3
-5 1 -13 -5 -16 -6 -4 -10 -3 -9 2 1 4 -1 16 -6 26 -9 22 9 45 20 26 5 -8 4
-10 -3 -5 -7 4 -12 1 -12 -8 0 -8 7 -13 15 -12 16 2 17 9 7 35 -3 7 1 16 7 21
9 5 8 9 -4 13 -9 4 -13 3 -10 -2 3 -5 1 -12 -4 -15 -5 -4 -8 2 -7 11 2 10 8
18 14 18 14 0 15 5 6 29 -4 10 -2 21 5 26 9 5 8 9 -4 13 -9 4 -13 3 -10 -2 3
-5 0 -13 -6 -17 -7 -4 -9 -3 -5 4 3 6 2 13 -4 17 -5 3 -10 12 -10 18 0 8 3 9
8 1 4 -6 14 -3 26 10 15 14 15 18 4 13 -11 -4 -18 1 -21 14 -4 16 -3 18 8 9
10 -8 15 -8 21 1 5 8 3 9 -5 5 -8 -5 -11 -3 -10 5 2 8 -3 25 -11 39 -12 23
-12 24 4 11 9 -8 19 -11 23 -7 3 3 1 6 -5 6 -7 0 -12 7 -12 16 0 9 5 12 13 8
9 -6 9 -5 0 7 -6 8 -11 18 -11 22 0 5 -3 11 -6 14 -3 3 -4 -4 -1 -15 4 -23
-10 -39 -19 -23 -4 5 -2 12 3 15 11 7 9 25 -3 45 -5 8 3 6 20 -5 22 -14 26
-15 17 -3 -9 10 -9 19 -2 26 6 6 5 10 -5 10 -8 0 -12 -5 -9 -10 3 -6 2 -8 -3
-5 -5 4 -8 23 -8 45 2 51 3 53 12 50 4 -1 7 2 7 8 0 5 -6 10 -13 12 -8 1 -17
5 -20 9 -4 4 1 4 12 0 15 -5 18 -2 14 19 -4 19 -2 23 7 15 8 -7 12 -5 12 5 0
8 -3 15 -7 15 -3 0 -6 9 -6 20 0 11 7 20 16 20 13 0 13 1 0 10 -11 7 -11 10
-2 10 7 0 10 5 7 11 -4 6 0 9 11 7 13 -2 18 4 19 24 2 32 21 58 44 58 9 0 23
5 31 11 13 9 12 10 -2 5 -10 -3 -18 -1 -18 4 0 6 5 10 11 10 5 0 7 4 4 10 -4
6 3 6 21 0 22 -9 25 -8 16 3 -14 17 -6 28 16 20 11 -5 13 -3 7 8 -7 12 -6 12
7 1 13 -10 18 -9 29 5 13 16 12 17 -2 5 -14 -10 -18 -10 -22 0 -3 8 5 14 19
14 13 1 24 -3 24 -10 0 -7 3 -7 8 2 5 7 18 14 31 17 12 2 19 0 16 -5 -3 -5 0
-12 6 -16 8 -4 9 -3 5 5 -6 9 4 11 38 8 25 -3 43 -1 41 4 -3 4 -14 6 -25 4
-11 -2 -22 0 -24 4 -7 10 72 7 81 -4 5 -4 2 -5 -6 0 -10 5 -12 4 -7 -4 4 -6
11 -9 15 -6 15 9 81 13 76 5 -3 -5 4 -14 15 -20 12 -6 18 -16 14 -23 -4 -7 -4
-9 1 -5 4 4 15 0 23 -9 11 -10 17 -12 20 -4 2 6 8 11 13 11 6 0 7 -6 3 -12 -4
-7 -3 -9 1 -5 12 10 15 38 4 32 -5 -4 -6 1 -3 9 3 9 11 13 18 10 6 -3 2 2 -8
10 -20 16 -20 16 0 17 10 0 13 3 7 6 -7 2 -13 14 -13 24 0 11 4 17 10 14 6 -3
7 1 4 9 -3 9 -11 13 -18 9 -6 -3 -2 4 8 16 16 17 16 20 4 16 -9 -4 -19 -1 -24
6 -4 8 -3 10 4 5 7 -4 12 -2 12 4 0 6 6 8 13 4 9 -5 9 -4 1 5 -7 7 -9 29 -7
48 3 20 1 33 -4 30 -5 -4 -10 0 -10 8 0 8 3 12 7 10 4 -2 7 3 7 11 0 8 -6 13
-14 10 -7 -3 -12 -2 -12 2 3 21 -3 32 -17 32 -8 0 -12 5 -8 11 5 8 1 8 -13 0
-14 -7 -24 -7 -33 2 -9 8 -11 8 -7 1 4 -7 0 -14 -7 -17 -11 -4 -13 0 -11 15 4
20 4 20 -17 2 -12 -11 -18 -13 -13 -5 6 10 3 12 -12 7 -11 -4 -33 -2 -48 4
-22 8 -26 8 -22 -3 3 -8 -1 -14 -9 -14 -10 0 -12 7 -8 21 4 15 3 17 -4 7 -5
-7 -14 -11 -20 -7 -6 3 -14 1 -18 -5 -4 -8 -3 -9 4 -5 7 4 12 3 12 -2 0 -5
-13 -9 -30 -9 -16 0 -30 4 -30 9 0 4 -5 8 -11 8 -5 0 -8 -4 -5 -9 3 -5 -1 -11
-9 -14 -10 -4 -12 -1 -8 11 5 14 4 15 -8 6 -20 -15 -51 -26 -44 -15 3 6 -6 7
-22 4 -16 -3 -33 -6 -40 -6 -7 0 -10 -4 -7 -9 3 -4 1 -8 -4 -8 -6 0 -8 -10 -5
-22 5 -22 5 -22 -9 -4 -15 19 -15 19 -26 0 -10 -16 -13 -17 -22 -4 -7 11 -10
11 -10 2 0 -7 -4 -10 -10 -7 -6 4 -7 -1 -3 -11 5 -14 3 -16 -12 -11 -16 7 -16
5 -4 -10 9 -11 10 -14 2 -9 -7 4 -13 3 -13 -2 0 -6 -14 -15 -31 -21 -20 -7
-28 -15 -24 -23 4 -7 -1 -4 -10 7 -16 20 -16 19 -11 -7 3 -21 1 -26 -11 -21
-11 4 -14 2 -9 -5 5 -8 -1 -12 -16 -12 -13 0 -18 -4 -13 -8 13 -9 13 -27 1
-39 -5 -4 -6 -3 -2 4 3 6 2 14 -4 18 -9 6 -14 -7 -7 -21 1 -3 -6 -10 -17 -16
-15 -8 -16 -12 -5 -19 11 -7 10 -9 -4 -9 -12 0 -16 -4 -11 -12 5 -8 0 -7 -11
2 -11 9 -16 10 -11 3 4 -8 2 -13 -6 -13 -9 0 -9 -3 2 -10 12 -8 12 -10 1 -10
-11 0 -11 -3 0 -17 10 -11 10 -14 1 -9 -11 7 -17 -5 -13 -28 1 -5 -5 -4 -13 4
-22 17 -20 6 1 -16 17 -17 17 -17 -4 -12 -25 7 -40 -6 -22 -18 8 -5 9 -3 4 6
-5 9 -4 11 4 6 15 -10 5 -26 -17 -26 -13 0 -13 -2 4 -15 14 -11 15 -14 3 -9
-10 3 -20 0 -25 -7 -4 -7 -3 -10 4 -5 6 3 13 2 16 -3 3 -5 -1 -12 -10 -15 -13
-5 -14 -9 -4 -21 10 -12 9 -15 -6 -15 -16 -1 -15 -3 6 -16 22 -14 23 -15 4
-11 -16 3 -21 0 -19 -12 2 -9 4 -20 4 -24 1 -5 6 -5 13 -1 7 4 8 3 4 -5 -6 -9
-11 -9 -24 1 -13 11 -14 11 -8 -1 5 -8 3 -17 -5 -23 -10 -7 -7 -7 9 -3 13 4
22 2 22 -4 0 -10 -22 -16 -43 -12 -5 1 -6 -3 -2 -9 3 -6 11 -8 16 -5 5 4 9 0
10 -7 0 -7 2 -21 4 -30 2 -10 -2 -15 -9 -12 -7 3 -13 -2 -13 -11 0 -9 6 -14
14 -11 7 3 12 0 10 -7 -1 -7 5 -11 13 -9 11 2 10 -1 -3 -12 -12 -9 -15 -16 -7
-21 8 -5 8 -11 -1 -21 -9 -11 -8 -14 2 -14 12 0 12 -2 0 -9 -9 -6 -10 -11 -2
-15 6 -4 11 -13 11 -19 0 -9 -2 -9 -8 -1 -4 7 -15 8 -27 3 -15 -6 -16 -8 -4
-8 20 -1 35 -31 16 -31 -19 0 -16 -50 3 -51 10 0 11 -2 3 -6 -7 -2 -13 -9 -13
-14 0 -6 6 -7 13 -3 6 4 9 4 5 -1 -4 -4 -3 -14 3 -22 9 -10 8 -13 -1 -13 -10
0 -10 -3 -1 -14 9 -11 9 -16 0 -21 -8 -6 -7 -10 2 -16 12 -7 12 -9 0 -9 -11 0
-11 -3 -1 -15 7 -9 10 -18 6 -22 -3 -3 -6 -2 -6 4 0 6 -9 9 -21 6 -20 -6 -20
-6 2 -17 28 -14 34 -32 14 -40 -9 -3 -14 -2 -11 3 3 5 -1 12 -9 15 -12 4 -13
2 -7 -12 5 -9 7 -22 5 -28 -2 -6 4 -14 13 -18 13 -5 14 -4 6 7 -9 10 -9 14 1
14 18 0 19 -34 1 -41 -10 -4 -13 -2 -8 7 5 9 3 8 -7 -1 -11 -10 -11 -14 -1
-21 7 -4 14 -17 17 -29 2 -12 7 -27 10 -32 3 -6 -1 -7 -9 -4 -9 3 -13 11 -9
18 3 6 2 7 -3 3 -5 -5 -9 -12 -9 -15 0 -4 -3 -12 -7 -18 -4 -6 -1 -11 7 -11 8
0 11 5 8 10 -3 6 -1 7 6 3 6 -4 9 -11 6 -16 -3 -4 -1 -10 4 -12 5 -1 2 -10 -7
-18 -14 -13 -15 -13 -10 1 4 9 1 16 -7 16 -16 0 -5 -26 20 -47 12 -10 13 -16
4 -26 -6 -8 -8 -14 -3 -14 4 0 -1 -7 -12 -15 -10 -8 -15 -15 -10 -15 5 0 3 -6
-3 -13 -8 -10 -7 -14 4 -14 8 0 11 5 8 10 -3 6 -1 7 6 3 6 -4 9 -11 6 -16 -3
-4 -1 -10 4 -12 5 -1 2 -10 -7 -18 -14 -13 -15 -13 -10 1 4 9 1 16 -8 16 -15
0 -10 -12 18 -43 13 -15 16 -24 9 -29 -6 -3 -9 -10 -6 -15 3 -4 -2 -10 -10
-14 -17 -6 -20 -26 -4 -26 5 0 7 4 4 10 -3 6 1 7 10 3 13 -5 14 -7 3 -14 -7
-5 -9 -9 -4 -9 6 0 2 -6 -9 -13 -14 -11 -15 -16 -5 -22 9 -6 11 -4 5 6 -8 12
-6 12 8 0 18 -15 23 -26 7 -16 -5 3 -10 1 -10 -4 0 -6 6 -11 13 -11 7 0 8 -3
2 -8 -5 -4 -16 -15 -24 -25 -12 -15 -12 -17 4 -11 14 6 16 4 10 -7 -7 -11 -5
-11 10 1 11 9 16 10 11 3 -4 -7 -2 -13 3 -13 6 0 11 -8 11 -17 0 -9 3 -14 6
-10 3 3 17 -5 31 -19 24 -25 39 -32 28 -14 -10 16 7 11 19 -6 8 -10 29 -16 58
-17 26 0 44 -5 42 -9 -3 -5 -9 -6 -13 -4 -4 3 -8 -1 -8 -8 0 -7 6 -13 13 -13
7 0 11 4 8 9 -3 4 0 8 5 8 6 0 11 -5 11 -11 0 -8 4 -8 14 0 11 9 16 9 22 0 5
-8 3 -10 -7 -4 -8 5 -11 4 -6 -1 4 -4 24 -7 43 -5 21 1 34 -2 34 -9 0 -9 3
-10 14 -1 10 8 16 8 25 -2 6 -8 8 -17 4 -20 -3 -4 -1 -7 6 -7 7 0 10 -4 7 -8
-2 -4 6 -9 20 -10 13 -1 24 4 24 11 0 8 4 7 10 -3 8 -13 13 -13 31 -2 11 8 18
9 14 3 -4 -8 47 -11 169 -11 156 0 176 2 186 18 9 12 10 13 7 1 -4 -11 2 -15
24 -15 23 0 28 3 24 17 -3 10 -1 20 4 24 7 4 8 -1 4 -12 -6 -16 -5 -16 10 -4
9 7 15 17 12 21 -3 5 3 7 12 5 10 -1 24 3 32 9 11 8 13 8 7 -1 -4 -7 -2 -13 3
-13 6 0 11 5 11 10 0 6 4 10 10 10 5 0 7 -6 4 -13 -3 -8 2 -14 10 -14 8 0 13
4 10 9 -3 4 4 8 15 8 11 0 23 5 27 12 5 7 12 5 22 -8 13 -16 14 -17 9 -2 -5
13 -1 18 13 18 11 0 20 5 20 11 0 5 -5 7 -12 3 -7 -4 -8 -3 -4 4 5 9 13 9 26
2 15 -8 18 -7 15 3 -4 8 3 13 15 14 13 1 18 -3 14 -10 -3 -7 1 -4 9 6 8 9 20
17 26 17 7 0 9 4 6 10 -4 6 1 7 11 3 12 -4 15 -3 10 6 -4 6 -4 11 1 10 26 -5
45 2 40 15 -6 14 9 16 30 3 6 -4 15 -2 19 4 4 8 3 9 -4 5 -7 -4 -12 -3 -12 3
0 6 12 14 26 17 19 5 22 9 12 15 -8 6 -1 9 21 9 33 0 34 1 15 15 -18 14 -17
15 8 5 29 -10 37 -5 33 23 -2 9 1 15 5 12 5 -3 12 0 15 6 4 5 14 8 22 5 9 -4
11 -2 7 6 -5 7 -2 9 8 5 11 -4 14 -1 11 12 -3 13 3 20 21 25 14 3 26 11 26 17
0 6 -6 7 -12 3 -8 -4 -10 -3 -5 2 5 5 14 9 20 9 6 0 14 10 17 23 6 26 18 30
32 10 8 -10 9 -10 5 2 -5 18 17 42 29 32 5 -4 2 1 -5 11 -12 15 -12 17 4 11
13 -5 16 -4 11 4 -4 7 -2 12 4 12 6 0 8 5 5 10 -3 6 -2 10 4 10 5 0 12 -6 15
-12 3 -7 3 -3 0 10 -4 18 -1 25 15 29 20 5 21 6 4 20 -10 8 -12 12 -5 8 6 -3
12 -3 12 2 0 4 10 19 21 33 l21 25 -16 -28 c-16 -27 -16 -27 2 -16 12 8 19 22
17 36 -2 20 5 27 26 25 3 0 4 13 3 29 -2 23 2 29 12 25 8 -3 14 -2 15 2 0 4 2
16 4 27 2 10 -1 25 -6 31 -7 8 -6 15 2 20 8 4 9 3 5 -4 -4 -7 -1 -12 9 -12 13
0 14 4 5 20 -10 19 -6 24 14 21 5 -1 6 6 2 15 -6 15 -4 15 10 3 15 -12 16 -11
10 9 -5 13 -3 22 3 22 6 0 11 5 11 11 0 5 -4 8 -8 5 -5 -3 -9 1 -9 9 0 8 4 12
8 10 4 -3 10 13 14 34 5 31 10 39 23 35 9 -3 6 2 -8 11 -14 9 -17 14 -7 11 11
-3 17 0 17 9 0 9 -6 12 -17 8 -10 -3 -2 9 17 26 19 18 30 30 23 27 -6 -4 -14
-2 -18 4 -3 5 -1 10 5 10 6 0 8 5 5 10 -4 6 -12 7 -18 3 -8 -5 -8 -2 0 9 7 8
9 19 5 23 -4 5 -1 5 6 1 12 -7 14 -4 15 37 0 14 -4 21 -14 19 -8 -2 -3 8 11
23 14 15 21 26 15 25 -22 -5 -27 1 -15 15 10 12 9 16 -4 21 -13 5 -13 9 7 25
12 11 16 18 8 17 -7 -2 -16 3 -19 11 -3 9 0 11 8 6 8 -5 11 -3 8 6 -3 8 -12
13 -19 11 -8 -2 -3 9 11 24 14 15 20 24 13 20 -6 -3 -14 -2 -18 4 -3 5 0 10 7
10 9 0 9 3 -2 10 -13 9 -13 10 0 11 10 0 8 3 -5 9 l-20 9 20 1 c19 1 19 1 2
11 -18 10 -18 11 0 32 10 11 14 18 8 15 -5 -3 -17 1 -25 10 -13 14 -12 15 4 9
14 -6 17 -4 12 9 -3 8 -6 18 -6 21 0 3 -6 0 -14 -6 -11 -9 -12 -6 -8 15 4 21
2 25 -9 20 -8 -4 -5 -1 5 8 10 8 24 13 30 9 6 -3 7 -2 3 3 -5 5 -13 9 -18 9
-5 0 -9 4 -8 9 0 5 -5 12 -12 17 -19 11 -19 48 0 42 9 -2 5 2 -8 10 -18 11
-20 16 -10 20 10 4 10 6 2 6 -7 1 -13 6 -13 12 0 5 5 7 10 4 6 -3 10 -2 10 4
0 5 -9 13 -20 16 -11 4 -18 11 -14 16 3 6 0 17 -7 25 -10 12 -14 12 -20 2 -5
-7 -6 4 -2 25 4 26 2 37 -7 37 -9 0 -9 4 1 17 10 11 10 14 2 9 -8 -4 -13 -2
-13 4 0 6 -4 8 -10 5 -5 -3 -10 1 -10 10 0 10 5 13 12 9 7 -4 8 -3 4 4 -4 6
-13 9 -22 5 -11 -4 -14 0 -10 21 3 15 1 24 -5 21 -5 -4 -6 -12 -3 -18 4 -7 3
-9 -1 -4 -8 7 -11 19 -17 64 -1 10 -4 10 -17 0 -10 -8 -13 -8 -8 0 4 6 4 13
-1 15 -4 1 -18 18 -31 36 -12 18 -27 29 -33 26 -7 -5 -8 -2 -4 5 6 9 12 9 25
-3 15 -14 18 -14 18 -1 0 8 -4 12 -8 10 -10 -7 -30 21 -21 31 4 4 -2 2 -12 -6
-11 -8 -17 -10 -13 -3 4 7 -1 14 -13 18 -17 5 -19 9 -9 21 6 8 9 17 5 21 -3 3
-6 0 -6 -8 0 -9 -3 -10 -8 -3 -4 5 -18 18 -32 28 -24 17 -24 17 -2 11 12 -3
22 -3 22 2 0 5 -10 9 -22 10 -11 1 -25 8 -29 15 -5 7 -9 9 -9 3 0 -5 -5 -2
-11 8 -5 9 -8 21 -5 25 3 4 -7 8 -20 8 -14 0 -28 -4 -30 -8z m33 -13 c0 -6 -6
-12 -12 -12 -6 0 -12 6 -12 12 0 6 6 12 12 12 6 0 12 -6 12 -12z m-1069 -339
c-7 -8 -15 -12 -17 -11 -5 6 10 25 20 25 5 0 4 -6 -3 -14z m-133 -834 c-3 -3
-11 0 -18 7 -9 10 -8 11 6 5 10 -3 15 -9 12 -12z m-290 -32 c-3 -5 -1 -10 6
-10 7 0 10 -3 6 -6 -9 -9 -28 6 -22 17 4 5 8 9 11 9 3 0 2 -4 -1 -10z m296
-107 c13 -16 12 -17 -3 -4 -14 11 -18 11 -18 1 0 -8 -3 -11 -6 -7 -5 5 3 27
10 27 2 0 10 -8 17 -17z m0 -160 c13 -16 12 -17 -3 -4 -14 11 -18 11 -18 1 0
-8 -3 -11 -6 -7 -5 5 3 27 10 27 2 0 10 -8 17 -17z m1179 -47 c0 -3 -4 -8 -10
-11 -5 -3 -10 -1 -10 4 0 6 5 11 10 11 6 0 10 -2 10 -4z m-1186 -84 c3 -5 -1
-9 -9 -9 -8 0 -12 4 -9 9 3 4 7 8 9 8 2 0 6 -4 9 -8z m1126 4 c0 -3 -4 -8 -10
-11 -5 -3 -10 -1 -10 4 0 6 5 11 10 11 6 0 10 -2 10 -4z m-1125 -47 c-4 -5
-12 -9 -18 -8 -9 0 -8 2 1 6 6 2 9 10 6 15 -4 7 -2 8 5 4 6 -4 9 -12 6 -17z
m-2 -34 c-3 -9 -8 -14 -10 -11 -3 3 -2 9 2 15 9 16 15 13 8 -4z m1003 -37 c4
-6 3 -8 -4 -4 -6 3 -14 -3 -17 -15 -4 -11 -9 -18 -12 -16 -5 5 14 47 22 47 2
0 7 -5 11 -12z m-1281 -18 c3 -6 -1 -7 -9 -4 -18 7 -21 14 -7 14 6 0 13 -4 16
-10z m281 -65 c1 -8 -2 -15 -6 -15 -5 0 -8 9 -7 20 1 21 10 18 13 -5z m139
-104 c3 -5 1 -12 -5 -16 -5 -3 -10 1 -10 9 0 18 6 21 15 7z m-275 -191 c0 -5
-5 -10 -11 -10 -5 0 -7 5 -4 10 3 6 8 10 11 10 2 0 4 -4 4 -10z m249 -84 c-3
-3 -11 5 -18 17 -13 21 -12 21 5 5 10 -10 16 -20 13 -22z m21 -6 c-6 -11 -13
-20 -16 -20 -2 0 0 9 6 20 6 11 13 20 16 20 2 0 0 -9 -6 -20z"/>
<path d="M1932 2161 c4 -13 18 -16 19 -4 0 4 -5 9 -11 12 -7 2 -11 -2 -8 -8z"/>
<path d="M2238 2133 c7 -3 16 -2 19 1 4 3 -2 6 -13 5 -11 0 -14 -3 -6 -6z"/>
<path d="M290 2119 c0 -5 5 -7 10 -4 6 3 10 8 10 11 0 2 -4 4 -10 4 -5 0 -10
-5 -10 -11z"/>
<path d="M1951 2074 c0 -11 3 -14 6 -6 3 7 2 16 -1 19 -3 4 -6 -2 -5 -13z"/>
<path d="M2306 2051 c-3 -5 2 -15 12 -22 15 -12 16 -12 5 2 -7 9 -10 19 -6 22
3 4 4 7 0 7 -3 0 -8 -4 -11 -9z"/>
<path d="M565 1990 c-3 -6 1 -7 9 -4 18 7 21 14 7 14 -6 0 -13 -4 -16 -10z"/>
<path d="M1625 1969 c-11 -16 -1 -19 13 -3 7 8 8 14 3 14 -5 0 -13 -5 -16 -11z"/>
<path d="M1186 1953 c-6 -14 -5 -15 5 -6 7 7 10 15 7 18 -3 3 -9 -2 -12 -12z"/>
<path d="M1490 1919 c0 -5 5 -7 10 -4 6 3 10 8 10 11 0 2 -4 4 -10 4 -5 0 -10
-5 -10 -11z"/>
<path d="M1953 1855 c-3 -9 -3 -18 -1 -21 3 -3 8 4 11 16 6 23 -1 27 -10 5z"/>
<path d="M1640 1749 c0 -5 5 -7 10 -4 6 3 10 8 10 11 0 2 -4 4 -10 4 -5 0 -10
-5 -10 -11z"/>
<path d="M55 1740 c-3 -5 -1 -10 4 -10 6 0 11 5 11 10 0 6 -2 10 -4 10 -3 0
-8 -4 -11 -10z"/>
<path d="M1626 1722 c-3 -5 1 -9 9 -9 8 0 15 4 15 9 0 4 -4 8 -9 8 -6 0 -12
-4 -15 -8z"/>
<path d="M1950 1699 c0 -5 5 -7 10 -4 6 3 10 8 10 11 0 2 -4 4 -10 4 -5 0 -10
-5 -10 -11z"/>
<path d="M1375 1640 c3 -5 8 -10 11 -10 2 0 4 5 4 10 0 6 -5 10 -11 10 -5 0
-7 -4 -4 -10z"/>
<path d="M21 1615 c0 -5 3 -16 8 -23 7 -11 9 -10 14 3 4 9 3 14 -2 10 -5 -3
-12 1 -14 7 -3 7 -6 9 -6 3z"/>
<path d="M1632 1611 c-11 -6 -10 -10 4 -15 16 -6 16 -8 -1 -26 -10 -11 -14
-20 -9 -20 15 0 35 38 24 45 -6 4 -8 11 -5 16 7 11 4 11 -13 0z"/>
<path d="M980 1518 c-10 -21 -10 -21 3 -6 8 10 18 14 22 10 5 -4 5 -1 1 6 -10
17 -14 15 -26 -10z"/>
<path d="M1620 1516 c0 -2 7 -7 16 -10 8 -3 12 -2 9 4 -6 10 -25 14 -25 6z"/>
<path d="M1635 1440 c3 -5 8 -10 11 -10 2 0 4 5 4 10 0 6 -5 10 -11 10 -5 0
-7 -4 -4 -10z"/>
<path d="M1620 1356 c0 -2 7 -7 16 -10 8 -3 12 -2 9 4 -6 10 -25 14 -25 6z"/>
<path d="M285 1340 c-3 -5 -1 -10 4 -10 6 0 11 5 11 10 0 6 -2 10 -4 10 -3 0
-8 -4 -11 -10z"/>
<path d="M1630 1320 c-9 -6 -10 -10 -3 -10 6 0 15 5 18 10 8 12 4 12 -15 0z"/>
<path d="M587 1269 c7 -7 15 -10 18 -7 3 3 -2 9 -12 12 -14 6 -15 5 -6 -5z"/>
<path d="M908 1263 c6 -2 9 -10 6 -15 -4 -7 -2 -8 5 -4 13 9 5 26 -12 25 -9 0
-8 -2 1 -6z"/>
<path d="M1615 1260 c3 -5 8 -10 11 -10 2 0 4 5 4 10 0 6 -5 10 -11 10 -5 0
-7 -4 -4 -10z"/>
<path d="M594 1180 c-1 -16 2 -30 7 -30 13 0 20 18 10 25 -6 3 -8 12 -4 20 3
8 1 15 -4 15 -4 0 -9 -13 -9 -30z"/>
<path d="M344 969 c-4 -7 -3 -9 4 -5 5 3 13 0 15 -6 4 -9 6 -10 6 -1 1 17 -16
25 -25 12z"/>
<path d="M594 940 c-1 -16 2 -30 7 -30 13 0 20 18 10 25 -6 3 -8 12 -4 20 3 8
1 15 -4 15 -4 0 -9 -13 -9 -30z"/>
<path d="M1787 889 c7 -7 15 -10 18 -7 3 3 -2 9 -12 12 -14 6 -15 5 -6 -5z"/>
<path d="M90 820 c0 -5 5 -10 11 -10 5 0 7 5 4 10 -3 6 -8 10 -11 10 -2 0 -4
-4 -4 -10z"/>
<path d="M2106 778 c3 -5 10 -6 15 -3 13 9 11 12 -6 12 -8 0 -12 -4 -9 -9z"/>
<path d="M580 716 c0 -2 7 -7 16 -10 8 -3 12 -2 9 4 -6 10 -25 14 -25 6z"/>
<path d="M1495 680 c-3 -5 -1 -10 4 -10 6 0 11 5 11 10 0 6 -2 10 -4 10 -3 0
-8 -4 -11 -10z"/>
<path d="M1215 650 c3 -5 8 -10 11 -10 2 0 4 5 4 10 0 6 -5 10 -11 10 -5 0 -7
-4 -4 -10z"/>
<path d="M1963 605 c0 -8 4 -12 9 -9 5 3 6 10 3 15 -9 13 -12 11 -12 -6z"/>
<path d="M595 569 c-10 -15 3 -25 16 -12 7 7 7 13 1 17 -6 3 -14 1 -17 -5z"/>
<path d="M470 536 c0 -2 8 -10 18 -17 15 -13 16 -12 3 4 -13 16 -21 21 -21 13z"/>
<path d="M476 481 c-3 -5 2 -15 12 -22 15 -12 16 -12 5 2 -7 9 -10 19 -6 22 3
4 4 7 0 7 -3 0 -8 -4 -11 -9z"/>
<path d="M595 409 c-10 -15 3 -25 16 -12 7 7 7 13 1 17 -6 3 -14 1 -17 -5z"/>
<path d="M470 406 c0 -2 7 -7 16 -10 8 -3 12 -2 9 4 -6 10 -25 14 -25 6z"/>
<path d="M1616 383 c-6 -14 -5 -15 5 -6 7 7 10 15 7 18 -3 3 -9 -2 -12 -12z"/>
<path d="M1555 369 c-4 -6 -5 -12 -2 -15 2 -3 7 2 10 11 7 17 1 20 -8 4z"/>
<path d="M1443 335 c0 -8 4 -12 9 -9 5 3 6 10 3 15 -9 13 -12 11 -12 -6z"/>
<path d="M1470 340 c0 -5 5 -10 10 -10 6 0 10 5 10 10 0 6 -4 10 -10 10 -5 0
-10 -4 -10 -10z"/>
<path d="M2075 309 c-4 -6 -5 -12 -2 -15 2 -3 7 2 10 11 7 17 1 20 -8 4z"/>
<path d="M580 285 c6 -8 9 -19 5 -24 -4 -7 0 -8 10 -5 14 6 14 8 -1 25 -20 22
-32 26 -14 4z"/>
<path d="M970 64 c0 -8 5 -12 10 -9 6 4 8 11 5 16 -9 14 -15 11 -15 -7z"/>
<path d="M1545 60 c-8 -9 -15 -21 -15 -26 0 -5 6 -2 13 7 12 16 18 19 37 19 6
0 10 4 10 8 0 15 -29 9 -45 -8z"/>
</g>
</svg>
