<svg width="40" height="40" viewBox="0 0 40 40" fill="none" xmlns="http://www.w3.org/2000/svg">
<g filter="url(#filter0_d_55_985)">
<path d="M24.125 5.75H24.3438C24.6719 5.75 25 5.47656 25 5.09375V4.65625C25 4.32812 24.6719 4 24.3438 4H4.65625C4.27344 4 4 4.32812 4 4.65625V5.09375C4 5.47656 4.27344 5.75 4.65625 5.75H4.875C4.875 10.7812 7.28125 16.3594 11.9297 18C7.22656 19.6953 4.875 25.2734 4.875 30.25H4.65625C4.27344 30.25 4 30.5781 4 30.9062V31.3438C4 31.7266 4.27344 32 4.65625 32H24.3438C24.6719 32 25 31.7266 25 31.3438V30.9062C25 30.5781 24.6719 30.25 24.3438 30.25H24.125C24.125 25.2734 21.6641 19.6953 17.0156 18C21.7188 16.3594 24.125 10.7812 24.125 5.75ZM6.625 5.75H22.375C22.375 11.8203 18.8203 16.6875 14.5 16.6875C10.125 16.6875 6.625 11.8203 6.625 5.75ZM22.375 30.25H6.625C6.625 24.2344 10.125 19.3125 14.5 19.3125C18.8203 19.3125 22.375 24.2344 22.375 30.25ZM18.7109 12.0391C19.0391 11.6562 18.7109 11 18.1641 11H10.7812C10.2344 11 9.90625 11.6562 10.2344 12.0391C10.3438 12.2031 10.4531 12.3672 10.6172 12.5312C10.7266 12.6953 10.8906 12.75 11.1094 12.75H17.8359C18.0547 12.75 18.2188 12.6953 18.3281 12.5312C18.4922 12.3672 18.6016 12.2031 18.7109 12.0391ZM9.35938 26.75C9.03125 26.75 8.8125 26.9688 8.70312 27.2422C8.70312 27.4062 8.64844 27.5703 8.59375 27.7344C8.53906 28.1172 8.8125 28.5 9.25 28.5H19.6953C20.1328 28.5 20.4062 28.1172 20.3516 27.7344C20.2969 27.5703 20.2422 27.4062 20.2422 27.2422C20.1328 26.9688 19.9141 26.75 19.5859 26.75H9.35938Z" fill="#5C8EE6"/>
</g>
<defs>
<filter id="filter0_d_55_985" x="0" y="0" width="44" height="44" filterUnits="userSpaceOnUse" color-interpolation-filters="sRGB">
<feFlood flood-opacity="0" result="BackgroundImageFix"/>
<feColorMatrix in="SourceAlpha" type="matrix" values="0 0 0 0 0 0 0 0 0 0 0 0 0 0 0 0 0 0 127 0" result="hardAlpha"/>
<feOffset dy="4"/>
<feGaussianBlur stdDeviation="2"/>
<feComposite in2="hardAlpha" operator="out"/>
<feColorMatrix type="matrix" values="0 0 0 0 0 0 0 0 0 0 0 0 0 0 0 0 0 0 0.25 0"/>
<feBlend mode="normal" in2="BackgroundImageFix" result="effect1_dropShadow_55_985"/>
<feBlend mode="normal" in="SourceGraphic" in2="effect1_dropShadow_55_985" result="shape"/>
</filter>
</defs>
</svg>
